<svg xmlns="http://www.w3.org/2000/svg" version="1.1" width="512" height="512" x="0" y="0" viewBox="0 0 32 32"
     style="enable-background:new 0 0 512 512" xml:space="preserve" class="">
    <g>
        <g>
            <path
                    d="m27.61292 4.87097h-23.22584c-1.86743 0-3.38708 1.51966-3.38708 3.38709v15.48389c0 1.86743 1.51965 3.38708 3.38708 3.38708h14.23072c.80145 0 1.45166-.65021 1.45166-1.4516 0-.80145-.65021-1.45166-1.45166-1.45166h-14.23072c-.26648 0-.48389-.21735-.48389-.48383v-10.16131h24.1936v.83447c0 .80145.65015 1.45166 1.4516 1.45166.80139 0 1.4516-.65021 1.4516-1.45166v-6.15704c.00001-1.86743-1.51964-3.38709-3.38707-3.38709zm.48388 5.80646h-24.1936v-2.41937c0-.26654.21741-.48389.48389-.48389h23.22583c.26648 0 .48389.21735.48389.48389v2.41937z"
                    fill="#10B981" class=""></path>
            <path
                    d="m29.5484 21.0929h-1.68127v-1.68121c0-.80145-.65021-1.45166-1.4516-1.45166-.80145 0-1.4516.65021-1.4516 1.45166v1.68121h-1.68127c-.80145 0-1.45166.65021-1.45166 1.45166 0 .80139.65021 1.4516 1.45166 1.4516h1.68127v1.68127c0 .80139.65015 1.4516 1.4516 1.4516.80139 0 1.4516-.65021 1.4516-1.4516v-1.68127h1.68127c.80139 0 1.4516-.65021 1.4516-1.4516 0-.80146-.65021-1.45166-1.4516-1.45166z"
                    fill="#10B981" class=""></path>
        </g>
    </g>
</svg>
