<svg xmlns="http://www.w3.org/2000/svg" version="1.1" width="512" height="512" x="0" y="0" viewBox="0 0 24 24"
     style="enable-background:new 0 0 512 512" xml:space="preserve" class=""><g><path d="M4 9.1c.2-1.8 1-3.5 2.3-4.8C7.9 2.8 9.9 2 12 2c2 0 4.1.8 5.7 2.3L16 6h5V1l-1.9 1.9C15.2-1 8.8-1 4.9 2.9 3.3 4.5 2.3 6.6 2 8.9V10h2v-.9zM20 10c0 2.1-.8 4.2-2.3 5.7-1.6 1.5-3.6 2.3-5.7 2.3s-4.1-.8-5.7-2.3L8 14H3v5l1.9-1.9C6.8 19 9.3 20 12 20s5.2-1 7.1-2.9S22 12.6 22 10z" fill="#000000" data-original="#000000"></path></g></svg>
