<svg xmlns="http://www.w3.org/2000/svg" viewBox="0 0 512 512">
    <g fill="currentColor">
        <path d="M196 512c44.242 0 78.496-4.234 105.973-12.89-.582-3.126-.973-6.32-.973-9.61 0-14.695 6.11-27.96 15.875-37.5-9.766-9.54-15.875-22.805-15.875-37.5s6.11-27.96 15.875-37.5C307.109 367.46 301 354.195 301 339.5s6.11-27.96 15.875-37.5C307.109 292.46 301 279.195 301 264.5c0-17.36 8.57-32.66 21.598-42.223a212.732 212.732 0 0 0-28.453-21.93C298.207 195.23 301 189.04 301 182c0-16.57-13.43-30-30-30H121c-16.57 0-30 13.43-30 30 0 7.023 2.785 13.195 6.824 18.305C39.59 237.82 0 305.754 0 377c0 121.012 112.285 135 196 135zm-.16-145.605c-24.817 0-45-20.184-45-45 0-19.59 12.656-36.118 30.16-42.286V257c0-8.29 6.71-15 15-15s15 6.71 15 15v22.21c17.34 6.255 29.84 22.716 29.84 42.185 0 8.293-6.711 15-15 15-8.293 0-15-6.707-15-15 0-8.278-6.727-15-15-15-8.278 0-15 6.722-15 15 0 8.277 6.722 15 15 15 24.812 0 45 20.187 45 45 0 19.468-12.5 35.93-29.84 42.187V437c0 8.29-6.71 15-15 15s-15-6.71-15-15v-13.32c-17.504-6.164-30.16-22.696-30.16-42.285 0-8.29 6.707-15 15-15 8.289 0 15 6.71 15 15 0 8.277 6.722 15 15 15 8.273 0 15-6.723 15-15 0-8.278-6.727-15-15-15zM489.5 467h-136c-12.426 0-22.5 10.074-22.5 22.5s10.074 22.5 22.5 22.5h136c12.426 0 22.5-10.074 22.5-22.5S501.926 467 489.5 467zm0-75h-136c-12.426 0-22.5 10.074-22.5 22.5s10.074 22.5 22.5 22.5h136c12.426 0 22.5-10.074 22.5-22.5S501.926 392 489.5 392zm0-75h-136c-12.426 0-22.5 10.074-22.5 22.5s10.074 22.5 22.5 22.5h136c12.426 0 22.5-10.074 22.5-22.5S501.926 317 489.5 317zm0-75h-136c-12.426 0-22.5 10.074-22.5 22.5s10.074 22.5 22.5 22.5h136c12.426 0 22.5-10.074 22.5-22.5S501.926 242 489.5 242zM238.238 30C232.023 12.578 215.531 0 196 0c-19.555 0-36.238 12.54-42.438 30H106a14.986 14.986 0 0 0-14.223 19.746L115.195 122H276.81l23.414-72.254A14.986 14.986 0 0 0 286 30zm0 0" fill="currentColor" data-original="#000000" class="hovered-path"></path>
    </g>
</svg>
